<svg xmlns="http://www.w3.org/2000/svg" width="520" height="220" viewBox="0 0 520 220" role="img" aria-labelledby="title desc">
  <title id="title">broadbuilder logo</title>
  <desc id="desc">Green rocket above the word broadbuilder with the tagline future your business</desc>
  <defs>
    <style>
      .text-main { fill: #111111; font-family: 'Arial', sans-serif; font-weight: 800; }
      .text-tag { fill: #31d69a; font-family: 'Arial', sans-serif; font-weight: 700; }
      .icon { fill: #31d69a; }
    </style>
  </defs>
  <g transform="translate(0,0)">
    <g transform="translate(250 20)" class="icon">
      <path d="M12 0c-6 8-10 17-11 27v12l11-3 11 3V27C22 17 18 8 12 0Z" />
      <path d="M10 36h4v8h-4z" />
      <path d="M7 26c-2 2-4 5-5 10l7-2z" />
      <path d="M17 26c2 2 4 5 5 10l-7-2z" />
      <circle cx="12" cy="14" r="3.5" fill="#ffffff" />
    </g>
    <g class="text-main" font-size="78" transform="translate(20 130)">
      <text>broadbuilder</text>
    </g>
    <g class="icon" transform="translate(250 140)">
      <rect x="-6" y="0" width="7" height="34" rx="3" />
      <rect x="2" y="0" width="7" height="34" rx="3" />
    </g>
    <g class="text-tag" font-size="28" transform="translate(185 180)">
      <text>future your business</text>
    </g>
  </g>
</svg>
